<svg xmlns="http://www.w3.org/2000/svg" viewBox="0 0 86.4 12.6"><title>logo</title><g id="Layer_2" data-name="Layer 2"><g id="Layer_1-2" data-name="Layer 1"><path d="M0,9.5V.5H1.5V8.2H5.3V9.5Z"/><path d="M12,6.1a3.57,3.57,0,0,1-.9,2.6,3.08,3.08,0,0,1-2.3,1,3.29,3.29,0,0,1-1.7-.4A4.73,4.73,0,0,1,6,8a5.33,5.33,0,0,1-.4-1.9,4,4,0,0,1,.8-2.6,3.33,3.33,0,0,1,2.5-.9,2.87,2.87,0,0,1,2.3.9A3.85,3.85,0,0,1,12,6.1Zm-4.9,0c0,1.6.6,2.4,1.7,2.4s1.7-.8,1.7-2.4S9.9,3.8,8.8,3.8a1.49,1.49,0,0,0-1.3.6A2.86,2.86,0,0,0,7.1,6.1Z"/><path d="M15.8,9.7a2.87,2.87,0,0,1-2.3-.9,4,4,0,0,1-.8-2.6,4,4,0,0,1,.8-2.6,3.24,3.24,0,0,1,2.4-.9,3.81,3.81,0,0,1,1.9.4l-.4,1.2a5.62,5.62,0,0,0-1.5-.4c-1.2,0-1.8.8-1.8,2.3a2.67,2.67,0,0,0,.4,1.7,1.49,1.49,0,0,0,1.3.6A4.07,4.07,0,0,0,17.6,8V9.3a1.33,1.33,0,0,1-.8.3C16.5,9.6,16.2,9.7,15.8,9.7Z"/><path d="M22.9,9.5l-.3-.9h0a2.35,2.35,0,0,1-1,.8,4.44,4.44,0,0,1-1.3.2,2.54,2.54,0,0,1-1.6-.5,2,2,0,0,1-.6-1.5A1.94,1.94,0,0,1,18.9,6a4.65,4.65,0,0,1,2.4-.6h1.2V5a1.49,1.49,0,0,0-.3-1,1.22,1.22,0,0,0-.9-.3,4.55,4.55,0,0,0-1.9.6l-.5-1a5.64,5.64,0,0,1,1.2-.4,6,6,0,0,1,1.2-.2,3,3,0,0,1,2,.6A2.48,2.48,0,0,1,24,5.1V9.7H22.9Zm-2.1-.9a2,2,0,0,0,1.3-.4A1.66,1.66,0,0,0,22.6,7V6.3h-.9a2.81,2.81,0,0,0-1.5.3,1.05,1.05,0,0,0-.5.9.91.91,0,0,0,.3.7C20.1,8.5,20.4,8.6,20.8,8.6Z"/><path d="M26.8,9.5H25.4V0h1.4Z"/><path d="M36.6,9.5,35.7,7H32.3l-.9,2.5H29.9l3.4-9h1.6l3.4,9ZM35.3,5.8l-.8-2.4c-.1-.2-.1-.4-.3-.8a4.5,4.5,0,0,1-.2-.8,9.83,9.83,0,0,1-.5,1.6l-.8,2.3h2.6Z"/><path d="M42,9.7a2.38,2.38,0,0,1-2-.9h-.1a5.81,5.81,0,0,1,.1,1v2.8H38.6V2.8h1.2c0,.1.1.4.2.9h0a2.12,2.12,0,0,1,2-1,2.52,2.52,0,0,1,2,.9,4,4,0,0,1,.7,2.6A4,4,0,0,1,44,8.8,2.52,2.52,0,0,1,42,9.7Zm-.4-5.9a1.73,1.73,0,0,0-1.3.5A3.51,3.51,0,0,0,40,5.9v.2a3,3,0,0,0,.4,1.8,1.49,1.49,0,0,0,1.3.6,1.43,1.43,0,0,0,1.2-.6,2.86,2.86,0,0,0,.4-1.7,2.67,2.67,0,0,0-.4-1.7A1.57,1.57,0,0,0,41.6,3.8Z"/><path d="M49.2,9.7a2.38,2.38,0,0,1-2-.9h-.1a5.81,5.81,0,0,1,.1,1v2.8H45.8V2.8H47c0,.1.1.4.2.9h.1a2.22,2.22,0,0,1,2-1,2.52,2.52,0,0,1,2,.9A4,4,0,0,1,52,6.2a4,4,0,0,1-.7,2.6A2.88,2.88,0,0,1,49.2,9.7Zm-.4-5.9a1.73,1.73,0,0,0-1.3.5,2.36,2.36,0,0,0-.4,1.6v.2a3,3,0,0,0,.4,1.8,1.49,1.49,0,0,0,1.3.6A1.43,1.43,0,0,0,50,7.9a2.86,2.86,0,0,0,.4-1.7A2.67,2.67,0,0,0,50,4.5,1.31,1.31,0,0,0,48.8,3.8Z"/><path d="M54.4,9.5H53V0h1.4Z"/><path d="M55.7,1a.85.85,0,0,1,.2-.6,1,1,0,0,1,1.2,0,.85.85,0,0,1,.2.6,1.42,1.42,0,0,1-.2.6,1,1,0,0,1-1.2,0A1.42,1.42,0,0,1,55.7,1Zm1.5,8.5H55.8V2.8h1.4Z"/><path d="M61.4,9.7a2.87,2.87,0,0,1-2.3-.9,4,4,0,0,1-.8-2.6,4,4,0,0,1,.8-2.6,3.24,3.24,0,0,1,2.4-.9,3.81,3.81,0,0,1,1.9.4L63,4.2a5.62,5.62,0,0,0-1.5-.4c-1.2,0-1.8.8-1.8,2.3a2.67,2.67,0,0,0,.4,1.7,1.49,1.49,0,0,0,1.3.6,4.07,4.07,0,0,0,1.8-.5V9.2a1.33,1.33,0,0,1-.8.3A2.51,2.51,0,0,1,61.4,9.7Z"/><path d="M68.5,9.5l-.3-.9h0a2.35,2.35,0,0,1-1,.8,4.44,4.44,0,0,1-1.3.2,2.54,2.54,0,0,1-1.6-.5,1.89,1.89,0,0,1-.6-1.5A1.94,1.94,0,0,1,64.5,6a4.65,4.65,0,0,1,2.4-.6h1.2V5a1.49,1.49,0,0,0-.3-1,1.22,1.22,0,0,0-.9-.3,4.55,4.55,0,0,0-1.9.6l-.5-1a5.64,5.64,0,0,1,1.2-.4,5,5,0,0,1,1.2-.2,3,3,0,0,1,2,.6,2.48,2.48,0,0,1,.7,1.8V9.7H68.5Zm-2.1-.9a2,2,0,0,0,1.3-.4A1.66,1.66,0,0,0,68.2,7V6.3h-.9a2.81,2.81,0,0,0-1.5.3,1.05,1.05,0,0,0-.5.9.91.91,0,0,0,.3.7C65.7,8.5,66,8.6,66.4,8.6Z"/><path d="M73.4,8.5a4.25,4.25,0,0,0,1.1-.2V9.4c-.2.1-.4.1-.6.2s-.5.1-.8.1c-1.4,0-2-.7-2-2.2V3.9h-.9V3.2l1-.5.5-1.4h.9V2.8h1.9V3.9H72.6V7.5a1.14,1.14,0,0,0,.3.8A.55.55,0,0,0,73.4,8.5Z"/><path d="M81.2,6.1a3.57,3.57,0,0,1-.9,2.6,3.08,3.08,0,0,1-2.3,1,3.29,3.29,0,0,1-1.7-.4A3.48,3.48,0,0,1,75.2,8a3.81,3.81,0,0,1-.4-1.9,4,4,0,0,1,.8-2.6A3.24,3.24,0,0,1,78,2.6a2.87,2.87,0,0,1,2.3.9A4.28,4.28,0,0,1,81.2,6.1Zm-4.9,0c0,1.6.6,2.4,1.7,2.4s1.7-.8,1.7-2.4S79.1,3.8,78,3.8a1.49,1.49,0,0,0-1.3.6A2.86,2.86,0,0,0,76.3,6.1Z"/><path d="M85.7,2.6a1.48,1.48,0,0,1,.7.1L86.3,4h-.6a1.82,1.82,0,0,0-1.4.6,2,2,0,0,0-.5,1.5V9.6H82.4V2.8h1.1L83.6,4h.1a2.84,2.84,0,0,1,.9-1A2.1,2.1,0,0,1,85.7,2.6Z"/></g></g></svg>