<svg xmlns="http://www.w3.org/2000/svg" viewBox="0 0 97.2 19.33"><defs><style>.cls-1{fill:#d44540;}.cls-2{fill:#f8d63d;}</style></defs><title>mig</title><g id="Layer_2" data-name="Layer 2"><g id="Layer_1-2" data-name="Layer 1"><rect x="9.34" width="24.5" height="6.67"/><rect class="cls-1" x="35.84" width="24.5" height="6.67"/><rect class="cls-2" x="62.67" width="24.5" height="6.67"/><path d="M7,15.7c-.06-1.13-.13-2.48-.12-3.49h0c-.27.95-.61,2-1,3.07L4.43,19.2h-.8l-1.3-3.85c-.39-1.14-.71-2.18-.94-3.14h0c0,1-.09,2.36-.16,3.57L1,19.25H0l.56-8.08H1.89l1.38,3.91c.34,1,.62,1.88.82,2.72h0c.2-.82.49-1.7.85-2.72l1.44-3.91H7.75l.5,8.08h-1Z"/><path d="M11.05,16.71l-.84,2.54H9.13l2.75-8.08h1.26l2.76,8.08H14.78l-.86-2.54Zm2.65-.82-.79-2.32c-.18-.53-.3-1-.42-1.48h0c-.12.48-.26,1-.41,1.46l-.79,2.34Z"/><path d="M17.09,11.28a14.33,14.33,0,0,1,2.22-.17,4.62,4.62,0,0,1,3.27,1A3.74,3.74,0,0,1,23.72,15a4.28,4.28,0,0,1-1.16,3.14A5,5,0,0,1,19,19.32a17,17,0,0,1-1.89-.09Zm1,7.14a6.45,6.45,0,0,0,1.06.06,3.1,3.1,0,0,0,3.44-3.43c0-1.9-1.07-3.12-3.28-3.12a5.89,5.89,0,0,0-1.22.11Z"/><path d="M29.27,15.46H26.12v2.91h3.5v.88H25.08V11.17h4.37V12H26.12V14.6h3.15Z"/><path d="M34.57,11.17v8.08h-1V11.17Z"/><path d="M36.4,19.25V11.17h1.13l2.59,4.09a23.94,23.94,0,0,1,1.46,2.62h0c-.1-1.08-.12-2.06-.12-3.32V11.17h1v8.08H41.41l-2.57-4.1a26.34,26.34,0,0,1-1.51-2.7h0c.06,1,.09,2,.09,3.34v3.45Z"/><path d="M53,18.89a7.51,7.51,0,0,1-2.49.44,4.17,4.17,0,0,1-3-1.06,4.18,4.18,0,0,1-1.13-3,4.07,4.07,0,0,1,4.38-4.18,5.17,5.17,0,0,1,2,.37l-.25.86A4.13,4.13,0,0,0,50.71,12a3,3,0,0,0-3.25,3.25,3,3,0,0,0,3.12,3.26A3.62,3.62,0,0,0,52,18.26V15.84H50.32V15H53Z"/><path d="M58.77,15.46H55.63v2.91h3.5v.88H54.59V11.17H59V12H55.63V14.6h3.14Z"/><path d="M60.49,11.28a10.66,10.66,0,0,1,2-.17,3.28,3.28,0,0,1,2.34.66,2,2,0,0,1,.64,1.53,2.11,2.11,0,0,1-1.53,2.06v0A2,2,0,0,1,65.13,17a13,13,0,0,0,.63,2.22H64.68a9.46,9.46,0,0,1-.54-1.93c-.24-1.12-.68-1.54-1.62-1.57h-1v3.5h-1Zm1,3.68H62.6c1.12,0,1.82-.61,1.82-1.54s-.75-1.5-1.85-1.51a4.18,4.18,0,0,0-1,.1Z"/><path d="M73.76,15.7c-.06-1.13-.13-2.48-.12-3.49h0c-.27.95-.61,2-1,3.07L71.16,19.2h-.8l-1.3-3.85c-.39-1.14-.71-2.18-.94-3.14h0c0,1-.09,2.36-.16,3.57l-.21,3.47h-1l.56-8.08h1.34L70,15.08c.34,1,.62,1.88.82,2.72h0c.2-.82.49-1.7.85-2.72l1.44-3.91h1.33l.5,8.08H74Z"/><path d="M77.78,16.71l-.84,2.54H75.86l2.75-8.08h1.26l2.76,8.08H81.51l-.86-2.54Zm2.65-.82-.79-2.32c-.18-.53-.3-1-.42-1.48h0c-.12.48-.25,1-.41,1.46L78,15.89Z"/><path d="M83.82,19.25V11.17H85l2.59,4.09A22.21,22.21,0,0,1,89,17.88h0c-.09-1.08-.12-2.06-.12-3.32V11.17h1v8.08H88.83l-2.56-4.1a24.7,24.7,0,0,1-1.52-2.7h0c.06,1,.08,2,.08,3.34v3.45Z"/><path d="M93.43,19.25V15.82l-2.55-4.65h1.18L93.2,13.4c.31.61.55,1.1.81,1.67h0c.23-.53.5-1.06.81-1.67L96,11.17H97.2l-2.71,4.64v3.44Z"/></g></g></svg>